<?xml version="1.0" encoding="UTF-8"?><svg xmlns="http://www.w3.org/2000/svg" xmlns:xlink="http://www.w3.org/1999/xlink" fill-opacity="1" color-rendering="auto" color-interpolation="auto" text-rendering="auto" stroke="black" stroke-linecap="square" width="765" stroke-miterlimit="10" shape-rendering="auto" stroke-opacity="1" fill="black" stroke-dasharray="none" font-weight="normal" stroke-width="1" height="424" font-family="'Dialog'" font-style="normal" stroke-linejoin="miter" font-size="12px" stroke-dashoffset="0" image-rendering="auto">
  <!--Generated by ySVG 2.5-->
  <defs id="genericDefs"/>
  <g>
    <defs id="defs1">
      <clipPath clipPathUnits="userSpaceOnUse" id="clipPath1">
        <path d="M0 0 L765 0 L765 424 L0 424 L0 0 Z"/>
      </clipPath>
      <clipPath clipPathUnits="userSpaceOnUse" id="clipPath2">
        <path d="M65 201 L830 201 L830 625 L65 625 L65 201 Z"/>
      </clipPath>
    </defs>
    <g fill="white" text-rendering="geometricPrecision" shape-rendering="geometricPrecision" transform="translate(-65,-201)" stroke="white">
      <rect x="65" width="765" height="424" y="201" clip-path="url(#clipPath2)" stroke="none"/>
    </g>
    <g fill="rgb(245,245,245)" text-rendering="geometricPrecision" shape-rendering="geometricPrecision" transform="matrix(1,0,0,1,-65,-201)" stroke="rgb(245,245,245)">
      <rect x="165" y="216.2875" clip-path="url(#clipPath2)" width="567" rx="4" ry="4" height="393.3125" stroke="none"/>
      <rect x="165" y="216.2875" clip-path="url(#clipPath2)" fill="rgb(235,235,235)" width="567" height="21.5781" stroke="none"/>
    </g>
    <g font-size="15px" stroke-linecap="butt" transform="matrix(1,0,0,1,-65,-201)" text-rendering="geometricPrecision" font-family="sans-serif" shape-rendering="geometricPrecision" stroke-miterlimit="1.45">
      <text x="404.3789" xml:space="preserve" y="232.2035" clip-path="url(#clipPath2)" stroke="none">PNG encoder</text>
      <rect x="165" y="216.2875" clip-path="url(#clipPath2)" fill="none" width="567" stroke-dasharray="6,2" rx="4" ry="4" height="393.3125"/>
    </g>
    <g fill="rgb(255,204,0)" text-rendering="geometricPrecision" shape-rendering="geometricPrecision" transform="matrix(1,0,0,1,-65,-201)" stroke="rgb(255,204,0)">
      <rect x="170" width="57" height="57" y="409.6" clip-path="url(#clipPath2)" stroke="none"/>
    </g>
    <g text-rendering="geometricPrecision" stroke-miterlimit="1.45" shape-rendering="geometricPrecision" transform="matrix(1,0,0,1,-65,-201)" stroke-linecap="butt">
      <rect fill="none" x="170" width="57" height="57" y="409.6" clip-path="url(#clipPath2)"/>
      <text x="173.2021" xml:space="preserve" y="442.2016" clip-path="url(#clipPath2)" font-family="sans-serif" stroke="none">Row filter</text>
    </g>
    <g fill="rgb(255,204,0)" text-rendering="geometricPrecision" shape-rendering="geometricPrecision" transform="matrix(1,0,0,1,-65,-201)" stroke="rgb(255,204,0)">
      <rect x="578" width="57" height="57" y="242.8656" clip-path="url(#clipPath2)" stroke="none"/>
    </g>
    <g text-rendering="geometricPrecision" stroke-miterlimit="1.45" shape-rendering="geometricPrecision" transform="matrix(1,0,0,1,-65,-201)" stroke-linecap="butt">
      <rect fill="none" x="578" width="57" height="57" y="242.8656" clip-path="url(#clipPath2)"/>
      <text x="592.9531" xml:space="preserve" y="261.4047" clip-path="url(#clipPath2)" font-family="sans-serif" stroke="none">IHDR</text>
      <text x="593.2402" xml:space="preserve" y="275.4672" clip-path="url(#clipPath2)" font-family="sans-serif" stroke="none">IEND</text>
      <text x="587.2959" xml:space="preserve" y="289.5297" clip-path="url(#clipPath2)" font-family="sans-serif" stroke="none">chunks</text>
    </g>
    <g fill="rgb(225,225,225)" text-rendering="geometricPrecision" shape-rendering="geometricPrecision" transform="matrix(1,0,0,1,-65,-201)" stroke="rgb(225,225,225)">
      <rect x="252" y="329.8656" clip-path="url(#clipPath2)" width="388" rx="4" ry="4" height="274.7344" stroke="none"/>
      <rect x="252" y="329.8656" clip-path="url(#clipPath2)" fill="rgb(235,235,235)" width="388" height="21.5781" stroke="none"/>
    </g>
    <g font-size="15px" stroke-linecap="butt" transform="matrix(1,0,0,1,-65,-201)" text-rendering="geometricPrecision" font-family="sans-serif" shape-rendering="geometricPrecision" stroke-miterlimit="1.45">
      <text x="407.676" xml:space="preserve" y="345.7816" clip-path="url(#clipPath2)" stroke="none">IDAT chunk</text>
      <rect x="252" y="329.8656" clip-path="url(#clipPath2)" fill="none" width="388" stroke-dasharray="6,2" rx="4" ry="4" height="274.7344"/>
    </g>
    <g fill="rgb(205,205,205)" text-rendering="geometricPrecision" shape-rendering="geometricPrecision" transform="matrix(1,0,0,1,-65,-201)" stroke="rgb(205,205,205)">
      <rect x="257" y="356.4437" clip-path="url(#clipPath2)" width="291" rx="4" ry="4" height="202.1562" stroke="none"/>
      <rect x="257" y="356.4437" clip-path="url(#clipPath2)" fill="rgb(235,235,235)" width="291" height="21.5781" stroke="none"/>
    </g>
    <g font-size="15px" stroke-linecap="butt" transform="matrix(1,0,0,1,-65,-201)" text-rendering="geometricPrecision" font-family="sans-serif" shape-rendering="geometricPrecision" stroke-miterlimit="1.45">
      <text x="368.2666" xml:space="preserve" y="372.3598" clip-path="url(#clipPath2)" stroke="none">Zlib (data)</text>
      <rect x="257" y="356.4437" clip-path="url(#clipPath2)" fill="none" width="291" stroke-dasharray="6,2" rx="4" ry="4" height="202.1562"/>
    </g>
    <g fill="rgb(185,185,185)" text-rendering="geometricPrecision" shape-rendering="geometricPrecision" transform="matrix(1,0,0,1,-65,-201)" stroke="rgb(185,185,185)">
      <rect x="307" y="383.0219" clip-path="url(#clipPath2)" width="154" rx="4" ry="4" height="88.5781" stroke="none"/>
      <rect x="307" y="383.0219" clip-path="url(#clipPath2)" fill="rgb(235,235,235)" width="154" height="21.5781" stroke="none"/>
    </g>
    <g font-size="15px" stroke-linecap="butt" transform="matrix(1,0,0,1,-65,-201)" text-rendering="geometricPrecision" font-family="sans-serif" shape-rendering="geometricPrecision" stroke-miterlimit="1.45">
      <text x="360.1597" xml:space="preserve" y="398.9379" clip-path="url(#clipPath2)" stroke="none">Deflate</text>
      <rect x="307" y="383.0219" clip-path="url(#clipPath2)" fill="none" width="154" stroke-dasharray="6,2" rx="4" ry="4" height="88.5781"/>
    </g>
    <g fill="rgb(255,204,0)" text-rendering="geometricPrecision" shape-rendering="geometricPrecision" transform="matrix(1,0,0,1,-65,-201)" stroke="rgb(255,204,0)">
      <rect x="312" width="57" height="57" y="409.6" clip-path="url(#clipPath2)" stroke="none"/>
    </g>
    <g text-rendering="geometricPrecision" stroke-miterlimit="1.45" shape-rendering="geometricPrecision" transform="matrix(1,0,0,1,-65,-201)" stroke-linecap="butt">
      <rect fill="none" x="312" width="57" height="57" y="409.6" clip-path="url(#clipPath2)"/>
      <text x="326.5488" xml:space="preserve" y="442.2016" clip-path="url(#clipPath2)" font-family="sans-serif" stroke="none">LZSS</text>
    </g>
    <g fill="rgb(255,204,0)" text-rendering="geometricPrecision" shape-rendering="geometricPrecision" transform="matrix(1,0,0,1,-65,-201)" stroke="rgb(255,204,0)">
      <rect x="399" width="57" height="57" y="409.6" clip-path="url(#clipPath2)" stroke="none"/>
    </g>
    <g text-rendering="geometricPrecision" stroke-miterlimit="1.45" shape-rendering="geometricPrecision" transform="matrix(1,0,0,1,-65,-201)" stroke-linecap="butt">
      <rect fill="none" x="399" width="57" height="57" y="409.6" clip-path="url(#clipPath2)"/>
      <text x="403.9014" xml:space="preserve" y="442.2016" clip-path="url(#clipPath2)" font-family="sans-serif" stroke="none">Huffman</text>
    </g>
    <g fill="rgb(255,204,0)" text-rendering="geometricPrecision" shape-rendering="geometricPrecision" transform="matrix(1,0,0,1,-65,-201)" stroke="rgb(255,204,0)">
      <rect x="312" width="57" height="57" y="496.6" clip-path="url(#clipPath2)" stroke="none"/>
    </g>
    <g text-rendering="geometricPrecision" stroke-miterlimit="1.45" shape-rendering="geometricPrecision" transform="matrix(1,0,0,1,-65,-201)" stroke-linecap="butt">
      <rect fill="none" x="312" width="57" height="57" y="496.6" clip-path="url(#clipPath2)"/>
      <text x="315.5654" xml:space="preserve" y="529.2015" clip-path="url(#clipPath2)" font-family="sans-serif" stroke="none">ADLER32</text>
    </g>
    <g fill="rgb(255,204,0)" text-rendering="geometricPrecision" shape-rendering="geometricPrecision" transform="matrix(1,0,0,1,-65,-201)" stroke="rgb(255,204,0)">
      <path d="M486 455.6 L537.3 455.6 L543 484.1 L537.3 512.6 L486 512.6 L491.7 484.1 Z" fill-rule="evenodd" clip-path="url(#clipPath2)" stroke="none"/>
    </g>
    <g text-rendering="geometricPrecision" stroke-miterlimit="1.45" shape-rendering="geometricPrecision" transform="matrix(1,0,0,1,-65,-201)" stroke-linecap="butt">
      <path fill="none" d="M486 455.6 L537.3 455.6 L543 484.1 L537.3 512.6 L486 512.6 L491.7 484.1 Z" fill-rule="evenodd" clip-path="url(#clipPath2)"/>
      <text x="501.6094" xml:space="preserve" y="488.2016" clip-path="url(#clipPath2)" font-family="sans-serif" stroke="none">MUX</text>
    </g>
    <g fill="rgb(255,204,0)" text-rendering="geometricPrecision" shape-rendering="geometricPrecision" transform="matrix(1,0,0,1,-65,-201)" stroke="rgb(255,204,0)">
      <rect x="578" width="57" height="57" y="455.6" clip-path="url(#clipPath2)" stroke="none"/>
    </g>
    <g text-rendering="geometricPrecision" stroke-miterlimit="1.45" shape-rendering="geometricPrecision" transform="matrix(1,0,0,1,-65,-201)" stroke-linecap="butt">
      <rect fill="none" x="578" width="57" height="57" y="455.6" clip-path="url(#clipPath2)"/>
      <text x="589.9092" xml:space="preserve" y="488.2016" clip-path="url(#clipPath2)" font-family="sans-serif" stroke="none">length</text>
    </g>
    <g fill="rgb(255,204,0)" text-rendering="geometricPrecision" shape-rendering="geometricPrecision" transform="matrix(1,0,0,1,-65,-201)" stroke="rgb(255,204,0)">
      <rect x="578" width="57" height="57" y="368.6" clip-path="url(#clipPath2)" stroke="none"/>
    </g>
    <g text-rendering="geometricPrecision" stroke-miterlimit="1.45" shape-rendering="geometricPrecision" transform="matrix(1,0,0,1,-65,-201)" stroke-linecap="butt">
      <rect fill="none" x="578" width="57" height="57" y="368.6" clip-path="url(#clipPath2)"/>
      <text x="595.1475" xml:space="preserve" y="401.2016" clip-path="url(#clipPath2)" font-family="sans-serif" stroke="none">type</text>
    </g>
    <g fill="rgb(255,204,0)" text-rendering="geometricPrecision" shape-rendering="geometricPrecision" transform="matrix(1,0,0,1,-65,-201)" stroke="rgb(255,204,0)">
      <rect x="578" width="57" height="57" y="542.6" clip-path="url(#clipPath2)" stroke="none"/>
    </g>
    <g text-rendering="geometricPrecision" stroke-miterlimit="1.45" shape-rendering="geometricPrecision" transform="matrix(1,0,0,1,-65,-201)" stroke-linecap="butt">
      <rect fill="none" x="578" width="57" height="57" y="542.6" clip-path="url(#clipPath2)"/>
      <text x="588.248" xml:space="preserve" y="575.2015" clip-path="url(#clipPath2)" font-family="sans-serif" stroke="none">CRC32</text>
    </g>
    <g fill="rgb(255,204,0)" text-rendering="geometricPrecision" shape-rendering="geometricPrecision" transform="matrix(1,0,0,1,-65,-201)" stroke="rgb(255,204,0)">
      <path d="M670 368.5999 L721.3 368.5999 L727 397.0999 L721.3 425.5999 L670 425.5999 L675.7 397.0999 Z" fill-rule="evenodd" clip-path="url(#clipPath2)" stroke="none"/>
    </g>
    <g text-rendering="geometricPrecision" stroke-miterlimit="1.45" shape-rendering="geometricPrecision" transform="matrix(1,0,0,1,-65,-201)" stroke-linecap="butt">
      <path fill="none" d="M670 368.5999 L721.3 368.5999 L727 397.0999 L721.3 425.5999 L670 425.5999 L675.7 397.0999 Z" fill-rule="evenodd" clip-path="url(#clipPath2)"/>
      <text x="685.6094" xml:space="preserve" y="401.2016" clip-path="url(#clipPath2)" font-family="sans-serif" stroke="none">MUX</text>
    </g>
    <g fill="rgb(255,204,0)" text-rendering="geometricPrecision" shape-rendering="geometricPrecision" transform="matrix(1,0,0,1,-65,-201)" stroke="rgb(255,204,0)">
      <rect x="83" width="57" height="57" y="409.6" clip-path="url(#clipPath2)" stroke="none"/>
    </g>
    <g text-rendering="geometricPrecision" stroke-miterlimit="1.45" shape-rendering="geometricPrecision" transform="matrix(1,0,0,1,-65,-201)" stroke-linecap="butt">
      <rect fill="none" x="83" width="57" height="57" y="409.6" clip-path="url(#clipPath2)"/>
      <text x="97.915" xml:space="preserve" y="428.1391" clip-path="url(#clipPath2)" font-family="sans-serif" stroke="none">Input</text>
      <text x="99.8486" xml:space="preserve" y="442.2016" clip-path="url(#clipPath2)" font-family="sans-serif" stroke="none">8 bit</text>
      <text x="82.5254" xml:space="preserve" y="456.2641" clip-path="url(#clipPath2)" font-family="sans-serif" stroke="none">(Raw data)</text>
    </g>
    <g fill="rgb(255,204,0)" text-rendering="geometricPrecision" shape-rendering="geometricPrecision" transform="matrix(1,0,0,1,-65,-201)" stroke="rgb(255,204,0)">
      <rect x="757" width="57" height="57" y="368.6" clip-path="url(#clipPath2)" stroke="none"/>
    </g>
    <g text-rendering="geometricPrecision" stroke-miterlimit="1.45" shape-rendering="geometricPrecision" transform="matrix(1,0,0,1,-65,-201)" stroke-linecap="butt">
      <rect fill="none" x="757" width="57" height="57" y="368.6" clip-path="url(#clipPath2)"/>
      <text x="767.4619" xml:space="preserve" y="387.1391" clip-path="url(#clipPath2)" font-family="sans-serif" stroke="none">Output</text>
      <text x="773.8486" xml:space="preserve" y="401.2016" clip-path="url(#clipPath2)" font-family="sans-serif" stroke="none">8 bit</text>
      <text x="758.1221" xml:space="preserve" y="415.2641" clip-path="url(#clipPath2)" font-family="sans-serif" stroke="none">(Encoded)</text>
      <path fill="none" d="M227 438.1 L265.8019 438.1 L265.8019 438.1 L304 438.1" clip-path="url(#clipPath2)"/>
      <path d="M312 438.1 L300 433.1 L303 438.1 L300 443.1 Z" clip-path="url(#clipPath2)" stroke="none"/>
      <path fill="none" d="M369 438.1 L391 438.1" clip-path="url(#clipPath2)"/>
      <path d="M399 438.1 L387 433.1 L390 438.1 L387 443.1 Z" clip-path="url(#clipPath2)" stroke="none"/>
      <path fill="none" d="M227 438.1 L281 438.1 L281 525.1 L304 525.1" clip-path="url(#clipPath2)"/>
      <path d="M312 525.1 L300 520.1 L303 525.1 L300 530.1 Z" clip-path="url(#clipPath2)" stroke="none"/>
      <path fill="none" d="M456 438.1 L471 438.1 L471 474.1 L481.6768 474.1" clip-path="url(#clipPath2)"/>
      <path d="M489.6768 474.1 L477.6768 469.1 L480.6768 474.1 L477.6768 479.1 Z" clip-path="url(#clipPath2)" stroke="none"/>
      <path fill="none" d="M369 525.1 L471 525.1 L471 498.1 L480.918 498.1" clip-path="url(#clipPath2)"/>
      <path d="M488.918 498.1 L476.918 493.1 L479.918 498.1 L476.918 503.1 Z" clip-path="url(#clipPath2)" stroke="none"/>
      <path fill="none" d="M543.0254 484.1 L570 484.1" clip-path="url(#clipPath2)"/>
      <path d="M578 484.1 L566 479.1 L569 484.1 L566 489.1 Z" clip-path="url(#clipPath2)" stroke="none"/>
      <path fill="none" d="M542.9833 484.1 L562.5509 484.1 L562.5509 571.1 L570 571.1" clip-path="url(#clipPath2)"/>
      <path d="M578 571.1 L566 566.1 L569 571.1 L566 576.1 Z" clip-path="url(#clipPath2)" stroke="none"/>
      <path fill="none" d="M635 271.3656 L655.3904 271.3656 L655.3904 397.1 L667.7243 397.1" clip-path="url(#clipPath2)"/>
      <path d="M675.7243 397.1 L663.7243 392.1 L666.7243 397.1 L663.7243 402.1 Z" clip-path="url(#clipPath2)" stroke="none"/>
      <path fill="none" d="M635 397.1 L655.3904 397.1 L655.3904 397.1 L667.7243 397.1" clip-path="url(#clipPath2)"/>
      <path d="M675.7243 397.1 L663.7243 392.1 L666.7243 397.1 L663.7243 402.1 Z" clip-path="url(#clipPath2)" stroke="none"/>
      <path fill="none" d="M635 484.1 L655.3904 484.1 L655.3904 397.1 L667.7243 397.1" clip-path="url(#clipPath2)"/>
      <path d="M675.7243 397.1 L663.7243 392.1 L666.7243 397.1 L663.7243 402.1 Z" clip-path="url(#clipPath2)" stroke="none"/>
      <path fill="none" d="M635 571.1 L655.3904 571.1 L655.3904 397.1 L667.7243 397.1" clip-path="url(#clipPath2)"/>
      <path d="M675.7243 397.1 L663.7243 392.1 L666.7243 397.1 L663.7243 402.1 Z" clip-path="url(#clipPath2)" stroke="none"/>
      <path fill="none" d="M542.9833 484.1 L562.5509 484.1 L562.5509 440.792 L655.3904 440.792 L655.3904 397.1 L667.7243 397.1" clip-path="url(#clipPath2)"/>
      <path d="M675.7243 397.1 L663.7243 392.1 L666.7243 397.1 L663.7243 402.1 Z" clip-path="url(#clipPath2)" stroke="none"/>
      <path fill="none" d="M140 438.1 L162 438.1" clip-path="url(#clipPath2)"/>
      <path d="M170 438.1 L158 433.1 L161 438.1 L158 443.1 Z" clip-path="url(#clipPath2)" stroke="none"/>
      <path fill="none" d="M727.0044 397.1 L749 397.1" clip-path="url(#clipPath2)"/>
      <path d="M757 397.1 L745 392.1 L748 397.1 L745 402.1 Z" clip-path="url(#clipPath2)" stroke="none"/>
    </g>
  </g>
</svg>
